<svg width="5" height="36" viewBox="0 0 5 36" fill="none" xmlns="http://www.w3.org/2000/svg">
<g id="color-black">
<path id="Vector" d="M1.55132 0.564587C1.148 0.715061 0.689995 1.05704 0.437065 1.40586C-0.0414505 2.06247 -0.00727085 0.886051 0.00640102 15.988L0.0269088 29.6331L0.197807 29.975C0.409721 30.4128 0.888237 30.8916 1.32574 31.1036L1.66753 31.2746L9.76812 31.2951L17.8687 31.3156L18.2447 31.8286C18.73 32.5057 19.7281 33.4496 20.4459 33.9284C22.0523 34.9953 23.6861 35.481 25.6207 35.481C26.7486 35.481 27.6168 35.351 28.5669 35.0295C31.7867 33.9557 34.2134 31.1173 34.7535 27.8206C34.8902 26.9793 34.8834 25.4335 34.7466 24.6401C34.1793 21.3297 31.7662 18.5323 28.5669 17.4653C27.5621 17.1302 26.7964 17.0139 25.6138 17.0139H24.6021L24.5884 9.5724L24.5679 2.13771L24.397 1.79572C24.1851 1.35799 23.7066 0.879211 23.2691 0.667183L22.9273 0.496193L12.3658 0.482513C3.54058 0.475674 1.76324 0.489353 1.55132 0.564587ZM22.4283 2.637C22.4966 2.70539 22.524 4.16224 22.5377 10.1127L22.5513 17.4995L22.3394 17.5748C21.8951 17.7252 20.9244 18.2382 20.398 18.5939L19.8511 18.9632L14.3482 18.9837C9.35796 19.0043 8.8316 19.0179 8.65386 19.1205C8.35308 19.2984 8.19585 19.613 8.19585 20.0302C8.19585 20.4406 8.33257 20.7073 8.64703 20.9194C8.83843 21.0425 9.05035 21.0493 13.3775 21.0493C15.8658 21.0493 17.9029 21.0562 17.9029 21.0698C17.9029 21.0835 17.7662 21.3366 17.5953 21.6375C17.4244 21.9316 17.1988 22.383 17.0962 22.6361L16.9117 23.1012H12.8785C9.04351 23.1012 8.83843 23.108 8.64703 23.2312C8.33257 23.4432 8.19585 23.7031 8.19585 24.1272C8.19585 24.5512 8.33257 24.8111 8.64703 25.0231C8.83843 25.1463 9.03667 25.1531 12.6255 25.1531H16.399V26.1585C16.399 27.2255 16.5152 28.1283 16.7339 28.8397L16.8638 29.2569L9.55621 29.2432C3.6773 29.2295 2.23492 29.2022 2.16656 29.1338C2.09136 29.0585 2.07085 26.6031 2.05718 16.0701C2.05035 8.93631 2.05718 2.99266 2.07769 2.86955C2.10503 2.72591 2.17339 2.62332 2.2691 2.58228C2.35796 2.54808 6.69195 2.52757 12.3794 2.5344C20.4459 2.54808 22.3531 2.56176 22.4283 2.637ZM26.4136 19.1616C27.7808 19.271 29.3189 19.9687 30.4605 21.0083C31.3765 21.8427 32.2037 23.2243 32.5455 24.4691C32.6822 24.9684 32.7027 25.2147 32.7027 26.2474C32.7027 27.6427 32.5933 28.1694 32.0806 29.25C31.356 30.7821 30.1939 31.9517 28.6695 32.6835C25.5318 34.1814 21.8335 33.1965 19.7828 30.317C19.3726 29.7493 18.9078 28.7439 18.7095 28.0257C18.5728 27.5196 18.5523 27.2871 18.5523 26.2474C18.5523 24.859 18.6617 24.3323 19.1607 23.2654C19.564 22.4172 19.9468 21.8701 20.5962 21.2135C21.8062 20.0097 23.358 19.2778 24.9986 19.1411C25.3267 19.1137 25.6685 19.1 25.7642 19.1069C25.8599 19.1205 26.1539 19.1411 26.4136 19.1616Z" fill="url(#paint0_linear_24708_7344)"/>
<path id="Vector_2" d="M4.54492 6.81585C4.23047 7.02788 4.09375 7.28779 4.09375 7.71185C4.09375 8.36161 4.46973 8.73779 5.11914 8.73779C5.76855 8.73779 6.14453 8.36161 6.14453 7.71185C6.14453 7.06208 5.76855 6.6859 5.11914 6.6859C4.86621 6.6859 4.68164 6.72694 4.54492 6.81585Z" fill="url(#paint1_linear_24708_7344)"/>
<path id="Vector_3" d="M4.54492 10.9199C4.23047 11.1319 4.09375 11.3918 4.09375 11.8159C4.09375 12.4656 4.46973 12.8418 5.11914 12.8418C5.76855 12.8418 6.14453 12.4656 6.14453 11.8159C6.14453 11.1661 5.76855 10.7899 5.11914 10.7899C4.86621 10.7899 4.68164 10.8309 4.54492 10.9199Z" fill="url(#paint2_linear_24708_7344)"/>
<path id="Vector_4" d="M4.54492 15.0234C4.23047 15.2354 4.09375 15.4953 4.09375 15.9194C4.09375 16.5691 4.46973 16.9453 5.11914 16.9453C5.76855 16.9453 6.14453 16.5691 6.14453 15.9194C6.14453 15.2696 5.76855 14.8934 5.11914 14.8934C4.86621 14.8934 4.68164 14.9345 4.54492 15.0234Z" fill="url(#paint3_linear_24708_7344)"/>
<path id="Vector_5" d="M4.54492 19.1274C4.23047 19.3394 4.09375 19.5993 4.09375 20.0234C4.09375 20.6731 4.46973 21.0493 5.11914 21.0493C5.76855 21.0493 6.14453 20.6731 6.14453 20.0234C6.14453 19.3736 5.76855 18.9974 5.11914 18.9974C4.86621 18.9974 4.68164 19.0385 4.54492 19.1274Z" fill="url(#paint4_linear_24708_7344)"/>
<path id="Vector_6" d="M4.54492 23.2314C4.23047 23.4434 4.09375 23.7033 4.09375 24.1274C4.09375 24.7771 4.46973 25.1533 5.11914 25.1533C5.76855 25.1533 6.14453 24.7771 6.14453 24.1274C6.14453 23.4776 5.76855 23.1014 5.11914 23.1014C4.86621 23.1014 4.68164 23.1425 4.54492 23.2314Z" fill="url(#paint5_linear_24708_7344)"/>
</g>
<defs>
<linearGradient id="paint0_linear_24708_7344" x1="17.4263" y1="35.481" x2="17.4263" y2="0.480957" gradientUnits="userSpaceOnUse">
<stop offset="0.452535" stop-color="#FFA588"/>
<stop offset="1" stop-color="#F36A3E"/>
</linearGradient>
<linearGradient id="paint1_linear_24708_7344" x1="5.11914" y1="8.73779" x2="5.11914" y2="6.6859" gradientUnits="userSpaceOnUse">
<stop offset="0.452535" stop-color="#FFA588"/>
<stop offset="1" stop-color="#F36A3E"/>
</linearGradient>
<linearGradient id="paint2_linear_24708_7344" x1="5.11914" y1="12.8418" x2="5.11914" y2="10.7899" gradientUnits="userSpaceOnUse">
<stop offset="0.452535" stop-color="#FFA588"/>
<stop offset="1" stop-color="#F36A3E"/>
</linearGradient>
<linearGradient id="paint3_linear_24708_7344" x1="5.11914" y1="16.9453" x2="5.11914" y2="14.8934" gradientUnits="userSpaceOnUse">
<stop offset="0.452535" stop-color="#FFA588"/>
<stop offset="1" stop-color="#F36A3E"/>
</linearGradient>
<linearGradient id="paint4_linear_24708_7344" x1="5.11914" y1="21.0493" x2="5.11914" y2="18.9974" gradientUnits="userSpaceOnUse">
<stop offset="0.452535" stop-color="#FFA588"/>
<stop offset="1" stop-color="#F36A3E"/>
</linearGradient>
<linearGradient id="paint5_linear_24708_7344" x1="5.11914" y1="25.1533" x2="5.11914" y2="23.1014" gradientUnits="userSpaceOnUse">
<stop offset="0.452535" stop-color="#FFA588"/>
<stop offset="1" stop-color="#F36A3E"/>
</linearGradient>
</defs>
</svg>
