<svg width="35" height="36" viewBox="0 0 35 36" fill="none" xmlns="http://www.w3.org/2000/svg">
<g id="color-black">
<path id="Vector" d="M2.02474 0.506931C1.21074 0.801067 0.60879 1.34829 0.218891 2.14177L0 2.59324V17.8814V33.1696L0.218891 33.621C0.615631 34.435 1.23126 34.9754 2.05894 35.2559C2.45568 35.3927 2.65405 35.3927 17.6139 35.379L32.7652 35.3585L33.244 35.1259C33.8734 34.8181 34.4137 34.2777 34.7216 33.6484L34.9541 33.1696V17.8814V2.59324L34.7216 2.11441C34.4137 1.4851 33.8734 0.944714 33.244 0.636898L32.7652 0.404327L17.5797 0.390648C2.7293 0.376965 2.38728 0.376965 2.02474 0.506931ZM32.389 2.60692C32.519 2.689 32.69 2.86001 32.7652 2.98314C32.8952 3.19519 32.902 3.35251 32.9226 5.89028L32.9431 8.57854H17.4771H2.01106L2.03158 5.89028C2.0521 3.26359 2.0521 3.20203 2.20259 2.96946C2.36676 2.70268 2.56513 2.55904 2.87294 2.48379C2.98923 2.45643 9.61752 2.44275 17.6139 2.44275L32.1496 2.45643L32.389 2.60692ZM32.9226 21.5889C32.902 32.4171 32.902 32.5539 32.7652 32.7797C32.69 32.9028 32.519 33.0738 32.389 33.1559L32.1496 33.3064H17.4771H2.80454L2.56513 33.1559C2.43516 33.0738 2.26415 32.9028 2.18891 32.7797C2.0521 32.5539 2.0521 32.4171 2.03158 21.5889L2.0179 10.6306H17.4771H32.9362L32.9226 21.5889Z" fill="url(#paint0_linear_24708_7335)"/>
<path id="Vector_2" d="M6.64287 4.60423C6.32821 4.81628 6.19141 5.07622 6.19141 5.50032C6.19141 6.15015 6.56762 6.52637 7.21746 6.52637C7.86729 6.52637 8.24351 6.15015 8.24351 5.50032C8.24351 4.85048 7.86729 4.47427 7.21746 4.47427C6.96436 4.47427 6.77968 4.51531 6.64287 4.60423Z" fill="url(#paint1_linear_24708_7335)"/>
<path id="Vector_3" d="M10.7444 4.60423C10.4298 4.81628 10.293 5.07622 10.293 5.50032C10.293 6.15015 10.6692 6.52637 11.319 6.52637C11.9689 6.52637 12.3451 6.15015 12.3451 5.50032C12.3451 4.85048 11.9689 4.47427 11.319 4.47427C11.0659 4.47427 10.8812 4.51531 10.7444 4.60423Z" fill="url(#paint2_linear_24708_7335)"/>
<path id="Vector_4" d="M14.8499 4.60423C14.5352 4.81628 14.3984 5.07622 14.3984 5.50032C14.3984 6.15015 14.7747 6.52637 15.4245 6.52637C16.0743 6.52637 16.4505 6.15015 16.4505 5.50032C16.4505 4.85048 16.0743 4.47427 15.4245 4.47427C15.1714 4.47427 14.9867 4.51531 14.8499 4.60423Z" fill="url(#paint3_linear_24708_7335)"/>
<path id="Vector_5" d="M6.64287 12.8126C6.54026 12.881 6.38978 13.0315 6.32137 13.1341C6.19825 13.3188 6.19141 13.5172 6.19141 16.8211C6.19141 20.125 6.19825 20.3233 6.32137 20.508C6.38978 20.6106 6.54026 20.7611 6.64287 20.8295C6.8344 20.9526 7.17642 20.9595 17.5122 20.9595C27.8479 20.9595 28.1899 20.9526 28.3815 20.8295C28.4841 20.7611 28.6346 20.6106 28.703 20.508C28.8261 20.3233 28.8329 20.125 28.8329 16.8211C28.8329 13.5172 28.8261 13.3188 28.703 13.1341C28.6346 13.0315 28.4841 12.881 28.3815 12.8126C28.1899 12.6895 27.8479 12.6827 17.5122 12.6827C7.17642 12.6827 6.8344 12.6895 6.64287 12.8126ZM26.7808 16.8211V18.9074H17.5122H8.24351V16.8211V14.7348H17.5122H26.7808V16.8211Z" fill="url(#paint4_linear_24708_7335)"/>
<path id="Vector_6" d="M6.64287 23.1417C6.54026 23.2101 6.38978 23.3606 6.32137 23.4632C6.19825 23.6479 6.19141 23.8463 6.19141 27.1502C6.19141 30.4541 6.19825 30.6524 6.32137 30.8371C6.38978 30.9397 6.54026 31.0902 6.64287 31.1586C6.8344 31.2817 7.06697 31.2886 12.3477 31.2886C17.6285 31.2886 17.861 31.2817 18.0526 31.1586C18.1552 31.0902 18.3056 30.9397 18.3741 30.8371C18.4972 30.6524 18.504 30.4541 18.504 27.1502C18.504 23.8463 18.4972 23.6479 18.3741 23.4632C18.3056 23.3606 18.1552 23.2101 18.0526 23.1417C17.861 23.0186 17.6285 23.0118 12.3477 23.0118C7.06697 23.0118 6.8344 23.0186 6.64287 23.1417ZM16.4519 27.1502V29.2365H12.3477H8.24351V27.1502V25.0639H12.3477H16.4519V27.1502Z" fill="url(#paint5_linear_24708_7335)"/>
<path id="Vector_7" d="M21.0061 23.1417C20.9035 23.2101 20.7531 23.3606 20.6847 23.4632C20.5615 23.6479 20.5547 23.8463 20.5547 27.1502C20.5547 30.4541 20.5615 30.6524 20.6847 30.8371C20.7531 30.9397 20.9035 31.0902 21.0061 31.1586C21.1908 31.2817 21.3892 31.2886 24.6931 31.2886C27.997 31.2886 28.1953 31.2817 28.38 31.1586C28.4826 31.0902 28.6331 30.9397 28.7015 30.8371C28.8247 30.6524 28.8315 30.4541 28.8315 27.1502C28.8315 23.8463 28.8247 23.6479 28.7015 23.4632C28.6331 23.3606 28.4826 23.2101 28.38 23.1417C28.1953 23.0186 27.997 23.0118 24.6931 23.0118C21.3892 23.0118 21.1908 23.0186 21.0061 23.1417ZM26.7794 27.1502V29.2365H24.6931H22.6068V27.1502V25.0639H24.6931H26.7794V27.1502Z" fill="url(#paint6_linear_24708_7335)"/>
</g>
<defs>
<linearGradient id="paint0_linear_24708_7335" x1="17.4771" y1="35.3848" x2="17.4771" y2="0.384766" gradientUnits="userSpaceOnUse">
<stop offset="0.452535" stop-color="#FFA588"/>
<stop offset="1" stop-color="#F36A3E"/>
</linearGradient>
<linearGradient id="paint1_linear_24708_7335" x1="7.21746" y1="6.52637" x2="7.21746" y2="4.47427" gradientUnits="userSpaceOnUse">
<stop offset="0.452535" stop-color="#FFA588"/>
<stop offset="1" stop-color="#F36A3E"/>
</linearGradient>
<linearGradient id="paint2_linear_24708_7335" x1="11.319" y1="6.52637" x2="11.319" y2="4.47427" gradientUnits="userSpaceOnUse">
<stop offset="0.452535" stop-color="#FFA588"/>
<stop offset="1" stop-color="#F36A3E"/>
</linearGradient>
<linearGradient id="paint3_linear_24708_7335" x1="15.4245" y1="6.52637" x2="15.4245" y2="4.47427" gradientUnits="userSpaceOnUse">
<stop offset="0.452535" stop-color="#FFA588"/>
<stop offset="1" stop-color="#F36A3E"/>
</linearGradient>
<linearGradient id="paint4_linear_24708_7335" x1="17.5122" y1="20.9595" x2="17.5122" y2="12.6827" gradientUnits="userSpaceOnUse">
<stop offset="0.452535" stop-color="#FFA588"/>
<stop offset="1" stop-color="#F36A3E"/>
</linearGradient>
<linearGradient id="paint5_linear_24708_7335" x1="12.3477" y1="31.2886" x2="12.3477" y2="23.0118" gradientUnits="userSpaceOnUse">
<stop offset="0.452535" stop-color="#FFA588"/>
<stop offset="1" stop-color="#F36A3E"/>
</linearGradient>
<linearGradient id="paint6_linear_24708_7335" x1="24.6931" y1="31.2886" x2="24.6931" y2="23.0118" gradientUnits="userSpaceOnUse">
<stop offset="0.452535" stop-color="#FFA588"/>
<stop offset="1" stop-color="#F36A3E"/>
</linearGradient>
</defs>
</svg>
