<svg width="242" height="94" viewBox="0 0 242 94" fill="none" xmlns="http://www.w3.org/2000/svg">
<g id="Group 237721">
<g id="Vector" filter="url(#filter0_d_24708_4006)">
<path d="M212.951 9H29.0492C20.7377 9 14 15.7414 14 24.0573V60.8722C14 69.1882 20.7377 75.9296 29.0492 75.9296H212.951C221.262 75.9296 228 69.1882 228 60.8722V24.0573C228 15.7414 221.262 9 212.951 9Z" fill="white"/>
</g>
<path id="Vector_2" d="M84.7242 31.0801L87.6091 39.7289L96.7219 39.6664L89.39 45.085L92.2749 53.7338L84.8596 48.4299L77.5277 53.8484L80.2772 45.1579L72.8516 39.8436L81.9748 39.781L84.7242 31.0801Z" fill="#FAAF3B"/>
<path id="Vector_3" d="M113.761 31.0801L116.646 39.7289L125.769 39.6664L118.426 45.085L121.311 53.7338L113.896 48.4299L106.564 53.8484L109.314 45.1579L101.898 39.8436L111.011 39.781L113.761 31.0801Z" fill="#FAAF3B"/>
<path id="Vector_4" d="M142.81 31.0801L145.695 39.7289L154.808 39.6664L147.476 45.085L150.361 53.7338L142.946 48.4299L135.603 53.8484L138.353 45.1579L130.938 39.8436L140.061 39.781L142.81 31.0801Z" fill="#FAAF3B"/>
<path id="Vector_5" d="M171.843 31.0801L174.728 39.7289L183.851 39.6664L176.508 45.085L179.393 53.7338L171.978 48.4299L164.646 53.8484L167.396 45.1579L159.98 39.8436L169.093 39.781L171.843 31.0801Z" fill="#FAAF3B"/>
<path id="Vector_6" d="M200.892 31.0801L203.777 39.7289L212.89 39.6664L205.558 45.085L208.443 53.7338L201.017 48.4299L193.685 53.8484L196.435 45.1579L189.02 39.8436L198.132 39.781L200.892 31.0801Z" fill="#FFEBE4"/>
<path id="Vector_7" d="M60.4605 41.6404C61.6424 34.3229 56.6717 27.4323 49.3583 26.2497C42.0448 25.0672 35.1579 30.0405 33.976 37.358C32.7941 44.6754 37.7647 51.5661 45.0782 52.7486C52.3917 53.9312 59.2786 48.9578 60.4605 41.6404Z" fill="#F36A3E"/>
<path id="Vector_8" d="M42.8987 55.6934H31.0469V58.8611H42.8987V55.6934Z" fill="#F36A3E"/>
<path id="Vector_9" d="M63.5955 55.6934H45.8281V58.8611H63.5955V55.6934Z" fill="#F36A3E"/>
</g>
<defs>
<filter id="filter0_d_24708_4006" x="0.809814" y="0.606246" width="240.38" height="93.3101" filterUnits="userSpaceOnUse" color-interpolation-filters="sRGB">
<feFlood flood-opacity="0" result="BackgroundImageFix"/>
<feColorMatrix in="SourceAlpha" type="matrix" values="0 0 0 0 0 0 0 0 0 0 0 0 0 0 0 0 0 0 127 0" result="hardAlpha"/>
<feOffset dy="4.79643"/>
<feGaussianBlur stdDeviation="6.59509"/>
<feComposite in2="hardAlpha" operator="out"/>
<feColorMatrix type="matrix" values="0 0 0 0 0 0 0 0 0 0 0 0 0 0 0 0 0 0 0.08 0"/>
<feBlend mode="normal" in2="BackgroundImageFix" result="effect1_dropShadow_24708_4006"/>
<feBlend mode="normal" in="SourceGraphic" in2="effect1_dropShadow_24708_4006" result="shape"/>
</filter>
</defs>
</svg>
